<svg xmlns:xlink="http://www.w3.org/1999/xlink" width="300" xmlns="http://www.w3.org/2000/svg" height="300" id="screenshot-3708de80-f5fa-11ec-a043-27a9d9345fea" viewBox="0 0 300 300" style="-webkit-print-color-adjust: exact;" fill="none" version="1.1"><g id="shape-3708de80-f5fa-11ec-a043-27a9d9345fea"><defs><clipPath id="frame-clip-3708de80-f5fa-11ec-a043-27a9d9345fea-2c7cde20-f5fb-11ec-8b1c-29d177b57284" class="frame-clip"><rect rx="0" ry="0" x="0" y="0" width="300" height="300" style="fill: rgb(255, 255, 255); fill-opacity: 1;"/></clipPath></defs><g clip-path="url(#frame-clip-3708de80-f5fa-11ec-a043-27a9d9345fea-2c7cde20-f5fb-11ec-8b1c-29d177b57284)"><g id="fills-3708de80-f5fa-11ec-a043-27a9d9345fea"><rect width="300" height="300" class="frame-background" x="0" transform="matrix(1,0,0,1,0,0)" style="fill: rgb(255, 255, 255); fill-opacity: 1;" ry="0" rx="0" y="0"/></g><g class="frame-children"><g id="shape-f4904480-f5f9-11ec-a043-27a9d9345fea" rx="0" ry="0"><g id="shape-3cb34980-f5f8-11ec-a043-27a9d9345fea"><g id="fills-3cb34980-f5f8-11ec-a043-27a9d9345fea"><ellipse rx="27.99999999999997" ry="27.999999999999986" cx="245" cy="108.99999999999999" transform="matrix(1,0,0,1,0,0)" style="fill: rgb(14, 135, 235); fill-opacity: 1;"/></g></g><g id="shape-eedda380-f5f8-11ec-a043-27a9d9345fea"><g id="fills-eedda380-f5f8-11ec-a043-27a9d9345fea"><path rx="0" ry="0" d="M174.0344048011707,206.1831411398031L151.4824701581291,169.2740052526982L141.0731547782512,184.5683703022287L128.43617544184053,203.13583300664956C126.09868182850946,207.16700155431505,122.72555752480125,210.68656487430488,118.42287591304245,213.2660212504611C104.85839187059725,221.39792549290686,87.15903533811036,217.1267604623589,78.92287591304262,203.73397874953875C78.36561960928272,202.82782678608424,77.86587049575907,201.90298564792832,77.42259916015777,200.9636138235952L33.57021236693934,127.73924659942045C33.34844757374043,127.41010760257443,33.132593923498106,127.07500026094021,32.92287591304242,126.73397874953875C24.686716487974707,113.34119703671854,29.012640044512338,95.86588299198459,42.57712408695761,87.73397874953885C55.718173363368145,79.85592352630697,72.73997250546043,83.61866485269883,81.27856257243415,96.0385626754646L81.34120402719613,95.99999999999999L104.82408227671152,135.21152361743327L127.86183564070825,101.36224563790991C130.18443687130667,97.54091418632684,133.45398015076034,94.20580234135781,137.57712408696034,91.73397874953719C151.14160812940653,83.60207450709295,168.84096466189305,87.87323953764293,177.07712408695926,101.26602125046405C177.7487321190041,102.35812004378991,178.33680987211952,103.47736521601824,178.84315941786772,104.61647698837604L222.19061212158607,175.56014756588223C222.86365389524389,176.41562098547394,223.49409905902527,177.31796688079461,224.07712408695832,178.2660212504628C232.31328351202515,191.6588029632835,227.98735995548648,209.13411700801714,214.42287591304077,217.26602125046205C200.85839187059506,225.39792549290695,183.15903533810842,221.12676046235788,174.9228759130416,207.7339787495372C174.6084750876962,207.22273298474957,174.31237967501346,206.70553817161115,174.0344048011707,206.1831411398031Z" style="fill: rgb(40, 84, 110); fill-opacity: 1;"/></g></g></g></g></g></g></svg>