<svg xmlns="http://www.w3.org/2000/svg" xmlns:xlink="http://www.w3.org/1999/xlink" id="Layer_1" x="0px" y="0px" width="158.125px" height="25.512px" viewBox="0 0 158.125 25.512" xml:space="preserve">
<g>
	<path fill="#0A165D" d="M52.741,14.087c-0.359,0.852-0.852,1.58-1.478,2.186c-0.627,0.605-1.359,1.077-2.196,1.415   c-0.838,0.338-1.742,0.507-2.714,0.507s-1.883-0.169-2.735-0.507c-0.852-0.338-1.591-0.81-2.218-1.415   c-0.627-0.605-1.119-1.334-1.478-2.186c-0.359-0.852-0.538-1.792-0.538-2.82V10.76c0-1.028,0.179-1.968,0.538-2.82   c0.359-0.852,0.856-1.58,1.489-2.186c0.634-0.606,1.373-1.077,2.218-1.415c0.845-0.338,1.753-0.507,2.724-0.507   c0.957,0,1.859,0.169,2.703,0.507c0.845,0.338,1.58,0.81,2.207,1.415c0.627,0.605,1.119,1.334,1.478,2.186   c0.359,0.852,0.539,1.792,0.539,2.82v0.507C53.28,12.295,53.1,13.235,52.741,14.087z M50.355,9.123   c-0.176-0.584-0.444-1.095-0.802-1.531c-0.359-0.436-0.81-0.782-1.352-1.035c-0.542-0.253-1.172-0.38-1.89-0.38   c-0.718,0-1.341,0.127-1.869,0.38c-0.528,0.253-0.971,0.599-1.331,1.035c-0.359,0.436-0.627,0.947-0.802,1.531   c-0.176,0.584-0.264,1.214-0.264,1.89c0,0.676,0.095,1.306,0.285,1.89c0.19,0.584,0.468,1.095,0.834,1.531s0.813,0.782,1.341,1.035   s1.137,0.38,1.827,0.38s1.299-0.127,1.827-0.38c0.528-0.253,0.975-0.599,1.341-1.035c0.366-0.436,0.644-0.947,0.834-1.531   c0.19-0.584,0.285-1.214,0.285-1.89C50.619,10.338,50.531,9.708,50.355,9.123z"></path>
	<path fill="#0A165D" d="M73.735,7.381c0.613,0.253,1.144,0.612,1.595,1.077c0.451,0.465,0.803,1.024,1.056,1.679   c0.253,0.655,0.38,1.383,0.38,2.186c0,0.127-0.004,0.253-0.011,0.38c-0.007,0.127-0.011,0.239-0.011,0.338   c0,0.127-0.007,0.246-0.021,0.359h-7.645c0.113,0.802,0.394,1.457,0.845,1.964s1.084,0.76,1.901,0.76   c0.591,0,1.074-0.102,1.447-0.306c0.373-0.204,0.665-0.538,0.876-1.003h2.492c-0.282,1.126-0.859,1.975-1.732,2.545   c-0.873,0.57-1.929,0.855-3.168,0.855c-0.732,0-1.418-0.134-2.059-0.401c-0.641-0.268-1.2-0.637-1.679-1.109   c-0.479-0.472-0.855-1.042-1.13-1.711c-0.275-0.669-0.412-1.405-0.412-2.207V12.45c0-0.802,0.137-1.538,0.412-2.207   c0.275-0.669,0.651-1.243,1.13-1.721c0.479-0.479,1.035-0.852,1.669-1.12c0.634-0.267,1.316-0.401,2.048-0.401   C72.45,7.001,73.123,7.128,73.735,7.381z M73.513,9.757c-0.38-0.444-0.95-0.665-1.711-0.665c-0.788,0-1.39,0.211-1.806,0.634   c-0.415,0.422-0.7,0.979-0.855,1.669h5.005C74.105,10.746,73.894,10.2,73.513,9.757z"></path>
	<path fill="#0088FF" d="M99.302,4.15v2.302h-3.886v11.426h-2.661V6.452h-4.055V4.15H99.302z"></path>
	<path fill="#0088FF" d="M105.332,7.381c0.612,0.253,1.144,0.612,1.594,1.077c0.451,0.465,0.802,1.024,1.056,1.679   c0.253,0.655,0.38,1.383,0.38,2.186c0,0.127-0.004,0.253-0.011,0.38c-0.007,0.127-0.011,0.239-0.011,0.338   c0,0.127-0.007,0.246-0.021,0.359h-7.645c0.113,0.802,0.394,1.457,0.845,1.964s1.084,0.76,1.901,0.76   c0.591,0,1.074-0.102,1.447-0.306c0.373-0.204,0.665-0.538,0.876-1.003h2.492c-0.281,1.126-0.859,1.975-1.732,2.545   c-0.873,0.57-1.929,0.855-3.168,0.855c-0.732,0-1.419-0.134-2.059-0.401c-0.641-0.268-1.201-0.637-1.679-1.109   c-0.478-0.472-0.855-1.042-1.13-1.711c-0.274-0.669-0.412-1.405-0.412-2.207V12.45c0-0.802,0.137-1.538,0.412-2.207   C98.743,9.574,99.12,9,99.598,8.522c0.479-0.479,1.035-0.852,1.669-1.12c0.633-0.267,1.316-0.401,2.048-0.401   C104.048,7.001,104.72,7.128,105.332,7.381z M105.111,9.757c-0.38-0.444-0.95-0.665-1.711-0.665c-0.788,0-1.39,0.211-1.806,0.634   c-0.415,0.422-0.7,0.979-0.855,1.669h5.005C105.702,10.746,105.491,10.2,105.111,9.757z"></path>
	<path fill="#0088FF" d="M138.627,8.733c0.239-0.408,0.553-0.739,0.94-0.993s0.82-0.44,1.299-0.56   c0.479-0.12,0.957-0.179,1.436-0.179c0.549,0,1.063,0.06,1.542,0.179c0.479,0.12,0.898,0.299,1.257,0.539   c0.359,0.239,0.651,0.549,0.876,0.929c0.225,0.38,0.352,0.838,0.38,1.373v0.211h-2.323c-0.028-0.493-0.194-0.838-0.496-1.035   c-0.303-0.197-0.714-0.296-1.235-0.296c-1.014,0-1.521,0.366-1.521,1.098c0,0.268,0.088,0.496,0.264,0.686   c0.176,0.19,0.419,0.32,0.728,0.391s0.644,0.137,1.003,0.201c0.359,0.063,0.721,0.144,1.087,0.243   c0.366,0.099,0.718,0.225,1.056,0.38c0.338,0.155,0.634,0.359,0.887,0.612s0.458,0.57,0.613,0.95   c0.155,0.38,0.232,0.774,0.232,1.183v0.106c0,0.634-0.13,1.169-0.391,1.605c-0.26,0.436-0.591,0.792-0.993,1.066   c-0.401,0.275-0.852,0.472-1.352,0.591c-0.5,0.12-0.996,0.18-1.489,0.18c-0.591,0-1.14-0.067-1.647-0.201   c-0.507-0.134-0.95-0.345-1.331-0.634c-0.38-0.288-0.683-0.651-0.908-1.088c-0.225-0.436-0.352-0.957-0.38-1.563v-0.211h2.408   c0,0.619,0.155,1.066,0.465,1.341c0.31,0.275,0.788,0.412,1.436,0.412c0.549,0,0.968-0.12,1.257-0.359   c0.288-0.239,0.433-0.542,0.433-0.908c0-0.282-0.088-0.535-0.264-0.76c-0.176-0.225-0.489-0.401-0.94-0.528   c-0.253-0.07-0.549-0.134-0.887-0.19c-0.338-0.056-0.686-0.127-1.045-0.211c-0.359-0.084-0.711-0.204-1.056-0.359   s-0.644-0.359-0.898-0.612c-0.225-0.225-0.415-0.514-0.57-0.866c-0.155-0.352-0.232-0.725-0.232-1.119v-0.127   C138.268,9.634,138.388,9.141,138.627,8.733z"></path>
	<path fill="#0A165D" d="M65.128,10.084c-0.282-0.662-0.655-1.222-1.119-1.679c-0.465-0.458-0.996-0.81-1.595-1.056   c-0.598-0.246-1.207-0.37-1.827-0.37c-0.69,0-1.338,0.106-1.943,0.317c-0.545,0.19-1.029,0.542-1.46,1.04V7.318h-0.547h-1.964   v3.696v10.665h2.556v-4.667h0.042c0.31,0.338,0.704,0.619,1.183,0.845c0.479,0.225,1.133,0.338,1.964,0.338   c0.76,0,1.454-0.137,2.08-0.412c0.627-0.274,1.168-0.655,1.626-1.14c0.458-0.486,0.81-1.063,1.056-1.732   c0.246-0.669,0.37-1.397,0.37-2.186v-0.401C65.551,11.492,65.41,10.746,65.128,10.084z M62.805,13.981   c-0.113,0.429-0.288,0.803-0.528,1.119c-0.239,0.317-0.542,0.567-0.908,0.75c-0.366,0.183-0.796,0.275-1.288,0.275   c-0.493,0-0.919-0.092-1.278-0.275c-0.359-0.183-0.658-0.433-0.898-0.75c-0.239-0.317-0.419-0.69-0.539-1.119   c-0.12-0.429-0.179-0.891-0.179-1.383c0-0.493,0.06-0.95,0.179-1.373c0.12-0.423,0.299-0.792,0.539-1.109   c0.239-0.317,0.539-0.567,0.898-0.75c0.359-0.183,0.785-0.275,1.278-0.275c0.493,0,0.922,0.092,1.288,0.275   c0.366,0.183,0.669,0.433,0.908,0.75c0.239,0.317,0.415,0.686,0.528,1.109c0.113,0.422,0.169,0.88,0.169,1.373   C62.974,13.09,62.918,13.551,62.805,13.981z"></path>
	<path fill="#0A165D" d="M87.316,9.25c-0.19-0.458-0.454-0.852-0.792-1.183c-0.338-0.331-0.743-0.591-1.214-0.782   c-0.472-0.19-0.996-0.285-1.573-0.285c-0.634,0-1.218,0.123-1.753,0.37c-0.492,0.226-0.927,0.599-1.312,1.105V7.318h-0.547H78.16   v3.696v6.864h2.556v-6.336c0-0.802,0.201-1.397,0.602-1.785c0.401-0.387,0.947-0.581,1.637-0.581c0.634,0,1.144,0.187,1.531,0.56   c0.387,0.373,0.581,0.968,0.581,1.785v6.357h2.534V10.76C87.601,10.211,87.506,9.708,87.316,9.25z"></path>
	<path fill="#0088FF" d="M136.018,8.004c-0.655-0.669-1.545-1.003-2.672-1.003c-0.268,0-0.556,0.032-0.866,0.095   c-0.31,0.063-0.613,0.165-0.908,0.306c-0.296,0.141-0.577,0.32-0.845,0.539c-0.268,0.218-0.5,0.482-0.697,0.792h-0.042   c-0.31-0.521-0.725-0.94-1.246-1.257c-0.521-0.317-1.141-0.475-1.859-0.475c-0.535,0-1.049,0.12-1.542,0.359   c-0.448,0.218-0.841,0.583-1.185,1.08V7.318h-0.547l0,0h-1.964v0v3.696v6.864h2.555v-6.42c0-0.774,0.173-1.348,0.517-1.721   s0.827-0.56,1.447-0.56c0.549,0,1.003,0.162,1.362,0.486c0.359,0.324,0.538,0.866,0.538,1.626v6.589h2.535v-6.505   c0-0.803,0.183-1.369,0.549-1.7c0.366-0.331,0.845-0.496,1.436-0.496c0.577,0,1.035,0.162,1.373,0.486   c0.338,0.324,0.507,0.887,0.507,1.69v6.526H137v-7.223C137,9.556,136.673,8.673,136.018,8.004z"></path>
	<g>
		<g>
			<path fill="#0088FF" d="M117.441,7.318v0.149h-0.012V9.07c-0.746-1.168-1.827-1.753-3.244-1.753     c-1.417,0-2.585,0.494-3.505,1.482c-0.92,0.988-1.38,2.259-1.38,3.813c0,1.554,0.463,2.831,1.389,3.831     c0.926,1.001,2.085,1.501,3.477,1.501c1.392,0,2.48-0.627,3.263-1.883v1.734h0.012h2.511V7.467V7.318H117.441z M116.609,14.859     c-0.547,0.541-1.184,0.811-1.911,0.811c-0.727,0-1.364-0.273-1.911-0.82c-0.547-0.547-0.82-1.293-0.82-2.237     c0-0.944,0.27-1.684,0.811-2.219c0.541-0.534,1.178-0.802,1.911-0.802s1.373,0.27,1.92,0.811c0.547,0.541,0.82,1.283,0.82,2.228     C117.429,13.576,117.155,14.319,116.609,14.859z"></path>
		</g>
	</g>
	<path fill="#0A165D" d="M22.411,23.661c-0.486,0.001-0.953-0.194-1.293-0.542c-0.709-0.725-0.707-1.885,0.005-2.608   c0.705-0.711,1.854-0.716,2.565-0.01c0.005,0.005,0.011,0.01,0.016,0.016c0.716,0.728,0.705,1.898-0.023,2.614   C23.342,23.465,22.887,23.654,22.411,23.661z"></path>
	<path fill="#0A165D" d="M16.149,22.742c-0.018,0-0.037-0.002-0.055-0.007c-0.144-0.006-0.273-0.088-0.341-0.215   c-0.135-0.315,0.251-0.874,0.416-1.111l0.041-0.059c0.593-0.889,1.793-2.385,2.723-3.472c0.955-1.118,1.778-1.98,2.274-2.496   l0.087-0.091l0.149-0.156l0.024-0.025c0.165-0.196,0.35-0.375,0.551-0.533c0.111-0.083,0.247-0.129,0.386-0.129   c0.142,0.001,0.281,0.046,0.396,0.129c0.155,0.13,0.301,0.271,0.437,0.422l0.005,0.005l0.282,0.287l0.078,0.081   c0.5,0.522,1.335,1.393,2.283,2.505c0.93,1.089,2.134,2.585,2.723,3.472c0.549,0.805,0.526,1.008,0.449,1.157   c-0.064,0.129-0.19,0.215-0.333,0.229c-0.012,0.001-0.024,0.001-0.036,0c-0.126,0-0.296-0.095-0.877-0.616   c-0.408-0.375-1.015-0.959-1.6-1.524l0,0c-0.356-0.341-0.691-0.664-0.973-0.932c-0.426-0.449-0.91-0.839-1.44-1.159   c-0.273-0.13-0.567-0.208-0.869-0.229c-0.097-0.012-0.195-0.018-0.293-0.018c-0.044,0-0.084,0-0.122,0h-0.106   c-0.142,0-0.29,0-0.522,0.014c-0.3,0.028-0.594,0.105-0.869,0.229c-0.533,0.311-1.017,0.702-1.434,1.157   c-0.266,0.252-0.579,0.555-0.911,0.876l0,0c-0.611,0.593-1.245,1.201-1.665,1.581C16.439,22.643,16.27,22.742,16.149,22.742z"></path>
	<path fill="#0A165D" d="M32.06,19.362c-0.361-0.066-0.7-0.22-0.986-0.45l-0.059-0.04c-0.842-0.567-2.337-1.724-3.556-2.752   c-1.141-0.962-2.023-1.778-2.664-2.386l-0.145-0.136l-0.036-0.034c-0.202-0.168-0.387-0.356-0.551-0.561   c-0.175-0.235-0.175-0.556,0-0.791c0.132-0.155,0.274-0.301,0.426-0.436l0.005-0.004l0.302-0.292l0.077-0.073   c0.533-0.506,1.429-1.351,2.587-2.311c1.114-0.939,2.645-2.155,3.556-2.752c0.661-0.444,0.899-0.496,1.021-0.496   c0.058,0,0.114,0.014,0.165,0.042c0.131,0.064,0.22,0.191,0.234,0.337c0.014,0.128-0.021,0.254-0.629,0.922   c-0.27,0.283-0.64,0.66-1.032,1.059c-0.533,0.542-1.082,1.103-1.5,1.546c-0.458,0.428-0.857,0.915-1.185,1.449   c-0.134,0.275-0.215,0.573-0.237,0.878c-0.017,0.139-0.022,0.279-0.016,0.419c0,0.038,0,0.072,0,0.108c0,0.144,0,0.293,0.014,0.527   c0.03,0.304,0.11,0.601,0.237,0.878c0.32,0.54,0.719,1.029,1.185,1.449c0.3,0.313,0.669,0.688,1.058,1.086   c0.546,0.557,1.111,1.132,1.473,1.521c0.607,0.652,0.66,0.786,0.629,0.922C32.394,19.237,32.268,19.362,32.06,19.362z"></path>
	<path fill="#0A165D" d="M13.06,19.362c-0.209,0-0.332-0.126-0.368-0.373c-0.014-0.129,0.021-0.254,0.629-0.922   c0.363-0.389,0.928-0.965,1.474-1.521l0,0c0.389-0.396,0.756-0.77,1.057-1.083c0.458-0.428,0.857-0.915,1.185-1.449   c0.133-0.275,0.213-0.573,0.234-0.878c0.017-0.139,0.022-0.28,0.017-0.42c0-0.037,0-0.072,0-0.107c0-0.144,0-0.293-0.015-0.527   c-0.027-0.304-0.106-0.602-0.232-0.88c-0.32-0.54-0.719-1.029-1.185-1.449c-0.3-0.312-0.666-0.685-1.054-1.08l0,0   c-0.548-0.558-1.114-1.135-1.477-1.524c-0.61-0.652-0.662-0.787-0.632-0.923c0.025-0.142,0.112-0.265,0.237-0.337   c0.051-0.028,0.107-0.042,0.165-0.042c0.119,0,0.359,0.052,1.021,0.496c0.839,0.564,2.334,1.719,3.556,2.752   c0.988,0.833,1.795,1.581,2.328,2.074c0.127,0.119,0.237,0.22,0.336,0.311l0.159,0.151l0.025,0.024   c0.201,0.167,0.384,0.353,0.547,0.558c0.175,0.235,0.175,0.556,0,0.791c-0.133,0.157-0.277,0.304-0.43,0.44l-0.006,0.005   l-0.296,0.286l-0.071,0.066c-0.533,0.506-1.431,1.353-2.593,2.32c-1.115,0.941-2.647,2.156-3.556,2.752l-0.053,0.036   C13.77,19.139,13.426,19.296,13.06,19.362z"></path>
	<path fill="#0A165D" d="M31.529,14.754c-0.486,0.001-0.953-0.194-1.293-0.542c-0.716-0.728-0.706-1.898,0.021-2.614   c0.34-0.334,0.795-0.524,1.271-0.531c0.486-0.001,0.953,0.194,1.293,0.542c0.708,0.723,0.708,1.88,0,2.603   C32.481,14.56,32.015,14.755,31.529,14.754z"></path>
	<path fill="#0A165D" d="M13.293,14.754c-0.486,0.001-0.951-0.195-1.29-0.542c-0.716-0.728-0.706-1.898,0.021-2.614   c0.34-0.334,0.795-0.524,1.271-0.531c0.486-0.001,0.953,0.194,1.293,0.542c0.716,0.728,0.706,1.898-0.021,2.614   c-0.34,0.334-0.795,0.524-1.271,0.531H13.293z"></path>
	<path fill="#0A165D" d="M22.403,11.067c-0.139,0-0.274-0.045-0.386-0.129c-0.153-0.128-0.296-0.267-0.43-0.415l0,0l-0.292-0.296   l-0.078-0.081c-0.5-0.522-1.335-1.393-2.284-2.506C18.003,6.55,16.8,5.055,16.211,4.165l-0.036-0.053   c-0.167-0.243-0.558-0.811-0.42-1.126c0.068-0.125,0.198-0.204,0.34-0.207c0.012-0.001,0.024-0.001,0.036,0   c0.127,0,0.296,0.095,0.877,0.616c0.408,0.376,1.018,0.962,1.608,1.529c0.356,0.34,0.687,0.661,0.97,0.929   c0.424,0.447,0.906,0.834,1.432,1.153c0.273,0.13,0.567,0.208,0.869,0.229c0.097,0.012,0.195,0.018,0.292,0.018   c0.043,0,0.084,0,0.123,0h0.107c0.142,0,0.29,0,0.522-0.014c0.3-0.029,0.593-0.108,0.867-0.232c0.534-0.311,1.018-0.7,1.435-1.156   c0.268-0.255,0.586-0.561,0.921-0.885c0.609-0.588,1.237-1.196,1.659-1.573c0.567-0.522,0.739-0.621,0.858-0.621   c0.019,0,0.037,0.002,0.055,0.007c0.139,0.023,0.261,0.107,0.333,0.229c0.076,0.151,0.1,0.356-0.449,1.157   c-0.59,0.889-1.792,2.384-2.723,3.472c-0.948,1.109-1.771,1.97-2.263,2.484l-0.098,0.103l-0.171,0.178   c-0.166,0.196-0.351,0.375-0.554,0.533C22.686,11.02,22.547,11.066,22.403,11.067z"></path>
	<path fill="#0A165D" d="M22.411,5.537c-0.486,0.001-0.953-0.194-1.293-0.542c-0.716-0.728-0.706-1.898,0.021-2.614   c0.34-0.334,0.795-0.524,1.271-0.531c0.486-0.001,0.953,0.194,1.293,0.542c0.343,0.347,0.535,0.816,0.533,1.304   c0.017,1.001-0.781,1.826-1.782,1.843c-0.014,0-0.027,0-0.041,0L22.411,5.537z"></path>
</g>
</svg>