<svg xmlns:xlink="http://www.w3.org/1999/xlink" width="239" xmlns="http://www.w3.org/2000/svg" height="113" id="screenshot-52c03590-3062-11ed-b357-910a7308d122" viewBox="-0 -0 239 113" style="-webkit-print-color-adjust: exact;" fill="none" version="1.1"><g id="shape-52c03590-3062-11ed-b357-910a7308d122"><defs><clipPath id="frame-clip-52c03590-3062-11ed-b357-910a7308d122-a5075950-30cb-11ed-81dc-2181fb6f5304" class="frame-clip"><rect rx="0" ry="0" x="0" y="0" width="238.99999999999997" height="112.99999999999999" transform="matrix(1,0,0,1,0,0)"/></clipPath></defs><g clip-path="url(#frame-clip-52c03590-3062-11ed-b357-910a7308d122-a5075950-30cb-11ed-81dc-2181fb6f5304)"><clipPath id="frame-clip-52c03590-3062-11ed-b357-910a7308d122-a5075950-30cb-11ed-81dc-2181fb6f5304" class="frame-clip"><rect rx="0" ry="0" x="0" y="0" width="238.99999999999997" height="112.99999999999999" transform="matrix(1,0,0,1,0,0)"/></clipPath><g id="fills-52c03590-3062-11ed-b357-910a7308d122"><rect rx="0" ry="0" x="0" y="0" transform="matrix(1,0,0,1,0,0)" width="238.99999999999997" height="112.99999999999999" class="frame-background"/></g><g class="frame-children"><g id="shape-52c03591-3062-11ed-b357-910a7308d122" rx="0" ry="0"><g id="shape-52c03593-3062-11ed-b357-910a7308d122" rx="0" ry="0"><g id="shape-52c03596-3062-11ed-b357-910a7308d122"><g id="fills-52c03596-3062-11ed-b357-910a7308d122"><path rx="0" ry="0" d="M192,13C209.109,13,223,26.667,223,43.5C223,60.333,209.109,74,192,74C174.891,74,161,60.333,161,43.5C161,26.667,174.891,13,192,13Z"/></g><g id="strokes-52c03596-3062-11ed-b357-910a7308d122"><g class="stroke-shape"><path rx="0" ry="0" d="M192,13C209.109,13,223,26.667,223,43.5C223,60.333,209.109,74,192,74C174.891,74,161,60.333,161,43.5C161,26.667,174.891,13,192,13Z" style="fill: none; stroke-width: 11; stroke: rgb(13, 74, 110); stroke-opacity: 1;"/></g></g></g><g id="shape-52c03597-3062-11ed-b357-910a7308d122"><g id="fills-52c03597-3062-11ed-b357-910a7308d122"><path rx="0" ry="0" d="M156,99.997L156,14C156,10.689,158.689,8,162,8C165.311,8,168,10.689,168,14L168,100C168,103.311,165.311,106,162,106C158.689,106,156,103.311,156,99.997Z" style="fill: rgb(13, 74, 110); fill-opacity: 1;"/></g></g></g><g id="shape-52c03594-3062-11ed-b357-910a7308d122"><g id="fills-52c03594-3062-11ed-b357-910a7308d122"><path rx="0" ry="0" d="M78.541,69.158L68.368,52.548L63.672,59.431L57.971,67.786C56.917,69.6,55.395,71.184,53.454,72.345C47.335,76.004,39.35,74.082,35.635,68.055C35.384,67.648,35.158,67.231,34.958,66.809L15.176,33.858C15.076,33.709,14.978,33.559,14.884,33.405C11.168,27.378,13.12,19.515,19.239,15.855C25.167,12.31,32.846,14.003,36.698,19.592L36.726,19.575L47.319,37.22L57.712,21.988C58.76,20.268,60.235,18.767,62.095,17.655C68.214,13.996,76.198,15.918,79.914,21.945C80.217,22.436,80.482,22.94,80.711,23.452L100.265,55.377C100.569,55.762,100.853,56.168,101.116,56.595C104.832,62.622,102.88,70.485,96.761,74.145C90.642,77.804,82.658,75.882,78.942,69.855C78.8,69.625,78.667,69.393,78.541,69.158Z"/></g><g id="strokes-52c03594-3062-11ed-b357-910a7308d122"><g class="stroke-shape"><path rx="0" ry="0" d="M78.541,69.158L68.368,52.548L63.672,59.431L57.971,67.786C56.917,69.6,55.395,71.184,53.454,72.345C47.335,76.004,39.35,74.082,35.635,68.055C35.384,67.648,35.158,67.231,34.958,66.809L15.176,33.858C15.076,33.709,14.978,33.559,14.884,33.405C11.168,27.378,13.12,19.515,19.239,15.855C25.167,12.31,32.846,14.003,36.698,19.592L36.726,19.575L47.319,37.22L57.712,21.988C58.76,20.268,60.235,18.767,62.095,17.655C68.214,13.996,76.198,15.918,79.914,21.945C80.217,22.436,80.482,22.94,80.711,23.452L100.265,55.377C100.569,55.762,100.853,56.168,101.116,56.595C104.832,62.622,102.88,70.485,96.761,74.145C90.642,77.804,82.658,75.882,78.942,69.855C78.8,69.625,78.667,69.393,78.541,69.158Z" style="fill: none; stroke-width: 10; stroke: rgb(13, 74, 110); stroke-opacity: 1;"/></g></g></g><g id="shape-52c03595-3062-11ed-b357-910a7308d122"><g id="fills-52c03595-3062-11ed-b357-910a7308d122"><ellipse rx="30.499999999999993" ry="30.5" cx="130.49999998486462" cy="44.49999996838986" transform="matrix(1,0,0,1,0,0)"/></g><g id="strokes-52c03595-3062-11ed-b357-910a7308d122"><g class="stroke-shape"><ellipse rx="30.499999999999993" ry="30.5" cx="130.49999998486462" cy="44.49999996838986" transform="matrix(1,0,0,1,0,0)" style="fill: none; stroke-width: 12; stroke: rgb(9, 121, 214); stroke-opacity: 1;"/></g></g></g></g></g></g></g></svg>